<?xml version="1.0" encoding="utf-8"?>
<!-- Generator: Adobe Illustrator 15.0.0, SVG Export Plug-In . SVG Version: 6.00 Build 0)  -->
<!DOCTYPE svg PUBLIC "-//W3C//DTD SVG 1.1//EN" "http://www.w3.org/Graphics/SVG/1.1/DTD/svg11.dtd">
<svg version="1.1" xmlns="http://www.w3.org/2000/svg" xmlns:xlink="http://www.w3.org/1999/xlink" x="0px" y="0px"
	 width="56.449px" height="100px" viewBox="0 0 56.449 100" enable-background="new 0 0 56.449 100" xml:space="preserve">
<g id="Layer_2" display="none">
	
		<rect x="28.161" y="64.108" transform="matrix(-0.4227 -0.9063 0.9063 -0.4227 -16.54 123.5458)" display="inline" width="5.838" height="5.866"/>
	<polygon display="inline" points="36.727,67.629 38.787,60.66 38.621,60.305 33.316,62.777 35.783,68.068 	"/>
	<polygon display="inline" points="16.242,55.846 17.914,61.506 23.135,59.072 20.668,53.781 	"/>
	<polygon display="inline" points="20.256,68.867 20.11,68.937 21.783,74.597 22.722,74.158 	"/>
	
		<rect x="22.037" y="66.974" transform="matrix(-0.4226 -0.9063 0.9063 -0.4226 -27.8487 122.0593)" display="inline" width="5.838" height="5.853"/>
	
		<rect x="31.826" y="40.057" transform="matrix(0.4225 0.9064 -0.9064 0.4225 59.0332 -6.6817)" display="inline" width="5.867" height="5.852"/>
	<polygon display="inline" points="39.055,59.111 39.274,59.01 41.492,51.502 36.575,53.794 	"/>
	
		<rect x="25.717" y="42.903" transform="matrix(0.9063 -0.4226 0.4226 0.9063 -16.6865 16.3978)" display="inline" width="5.852" height="5.867"/>
	
		<rect x="19.587" y="45.757" transform="matrix(0.4225 0.9064 -0.9064 0.4225 57.1376 7.7084)" display="inline" width="5.867" height="5.867"/>
	
		<rect x="34.697" y="46.173" transform="matrix(0.4226 0.9063 -0.9063 0.4226 66.2181 -5.7421)" display="inline" width="5.837" height="5.853"/>
	<polygon display="inline" points="36.163,68.881 36.281,69.136 36.388,68.776 	"/>
	<polygon display="inline" points="19.853,68.065 19.876,68.055 19.804,67.9 	"/>
	
		<rect x="19.171" y="60.857" transform="matrix(-0.4227 -0.9063 0.9063 -0.4227 -26.3595 110.7757)" display="inline" width="5.866" height="5.853"/>
	
		<rect x="22.453" y="51.875" transform="matrix(0.4226 0.9063 -0.9063 0.4226 64.3224 8.6505)" display="inline" width="5.838" height="5.867"/>
	<path display="inline" d="M28.498,36.471l1.994,4.276l5.305-2.474l-1.105-2.367c-0.621-0.25-1.211-0.58-1.755-0.986
		C31.654,35.878,30.119,36.417,28.498,36.471z"/>
	
		<rect x="28.578" y="49.029" transform="matrix(0.4226 0.9063 -0.9063 0.4226 65.277 1.4551)" display="inline" width="5.838" height="5.853"/>
	
		<rect x="25.294" y="57.991" transform="matrix(-0.4227 -0.9062 0.9062 -0.4227 -15.0526 112.2616)" display="inline" width="5.867" height="5.868"/>
	
		<rect x="31.416" y="55.143" transform="matrix(-0.4228 -0.9062 0.9062 -0.4228 -3.7499 113.7493)" display="inline" width="5.867" height="5.852"/>
	<polygon display="inline" points="42.059,49.584 44.038,42.883 39.846,44.838 	"/>
	<path display="inline" d="M28.225,93c0.598,0,1.122-0.393,1.292-0.965l0.598-2.024l-1.308-2.803l-2.899,1.352l1.027,3.476
		C27.104,92.607,27.627,93,28.225,93z"/>
	<polygon display="inline" points="25.96,81.104 23.979,82.027 25.651,87.689 28.428,86.395 	"/>
	<polygon display="inline" points="12.375,42.754 14.047,48.415 17.429,46.837 14.963,41.547 	"/>
	
		<rect x="16.735" y="39.655" transform="matrix(0.9063 -0.4226 0.4226 0.9063 -16.1494 12.301)" display="inline" width="5.867" height="5.837"/>
	<path display="inline" d="M12.118,41.883l2.465-1.149l-2.25-4.825c-0.586,0.235-1.203,0.401-1.837,0.489L12.118,41.883z"/>
	<path display="inline" d="M20.714,37.875l-0.694-1.492c-0.398,0.061-0.803,0.093-1.213,0.093c-1.724,0-3.357-0.545-4.711-1.556
		c-0.302,0.226-0.621,0.426-0.951,0.604l2.251,4.83L20.714,37.875z"/>
	<polygon display="inline" points="33.003,80.232 32.078,78.25 26.774,80.724 29.242,86.015 31.623,84.903 	"/>
	<path display="inline" d="M20.92,36.191l0.608,1.304l3.565-1.662c-0.556-0.241-1.085-0.545-1.577-0.913
		C22.732,35.506,21.853,35.934,20.92,36.191z"/>
	<path display="inline" d="M44.947,39.807l1.008-3.41c-0.846-0.118-1.656-0.372-2.411-0.748l-0.438,0.205L44.947,39.807z"/>
	<polygon display="inline" points="29.621,86.828 30.498,88.711 31.284,86.051 	"/>
	<polygon display="inline" points="34.169,76.284 35.897,70.437 35.349,69.261 30.033,71.741 32.513,77.057 	"/>
	<polygon display="inline" points="33.832,77.433 32.891,77.871 33.387,78.934 	"/>
	
		<rect x="24.877" y="73.088" transform="matrix(-0.4228 -0.9062 0.9062 -0.4228 -29.3166 133.357)" display="inline" width="5.867" height="5.853"/>
	<path display="inline" d="M24.374,43.599l5.303-2.473l-2.184-4.685c-0.396-0.036-0.787-0.1-1.167-0.193l-4.419,2.061L24.374,43.599
		z"/>
	<polygon display="inline" points="23.102,74.973 22.04,75.467 23.722,81.156 25.582,80.289 	"/>
	<path display="inline" d="M35.851,36.272l0.758,1.623l5.305-2.474l-0.068-0.147c-1.245,0.784-2.687,1.203-4.197,1.203
		C37.034,36.476,36.433,36.406,35.851,36.272z"/>
	<polygon display="inline" points="14.305,49.285 15.985,54.975 20.289,52.968 17.809,47.65 	"/>
	<polygon display="inline" points="36.987,38.708 39.466,44.025 44.376,41.736 44.563,41.107 42.291,36.234 	"/>
	<g display="inline">
		<path d="M49.667,22.546C48.664,11.585,39.448,3,28.225,3C17.003,3,7.789,11.585,6.785,22.546c-2.33,1.007-3.961,3.325-3.961,6.024
			c0,3.623,2.938,6.561,6.561,6.561c1.85,0,3.519-0.766,4.709-1.996c1.193,1.23,2.862,1.996,4.711,1.996
			c1.849,0,3.518-0.766,4.71-1.996c1.193,1.23,2.862,1.996,4.71,1.996c1.849,0,3.519-0.766,4.71-1.996
			c1.193,1.23,2.863,1.996,4.711,1.996c1.849,0,3.517-0.766,4.711-1.996c1.191,1.23,2.861,1.996,4.709,1.996
			c3.623,0,6.561-2.937,6.561-6.561C53.628,25.871,51.996,23.552,49.667,22.546z"/>
	</g>
</g>
<g id="Layer_4">
	
		<rect x="28.159" y="65.592" transform="matrix(-0.4228 -0.9062 0.9062 -0.4228 -17.8388 125.8619)" fill="#FFFFFF" width="6.013" height="6.041"/>
	<polygon fill="#FFFFFF" points="36.982,69.218 39.103,62.04 38.932,61.674 33.468,64.221 36.009,69.671 	"/>
	<polygon fill="#FFFFFF" points="15.882,57.081 17.604,62.911 22.982,60.404 20.442,54.955 	"/>
	<polygon fill="#FFFFFF" points="20.017,70.493 19.867,70.564 21.589,76.395 22.556,75.943 	"/>
	
		<rect x="21.85" y="68.543" transform="matrix(-0.4228 -0.9062 0.9062 -0.4228 -29.4835 124.3352)" fill="#FFFFFF" width="6.013" height="6.029"/>
	
		<rect x="31.934" y="40.819" transform="matrix(0.4225 0.9064 -0.9064 0.4225 59.9162 -6.3686)" fill="#FFFFFF" width="6.042" height="6.028"/>
	<polygon fill="#FFFFFF" points="39.379,60.445 39.605,60.34 41.889,52.607 36.825,54.968 	"/>
	
		<rect x="25.641" y="43.75" transform="matrix(0.9063 -0.4225 0.4225 0.9063 -17.0794 16.4886)" fill="#FFFFFF" width="6.027" height="6.043"/>
	
		<rect x="19.327" y="46.69" transform="matrix(0.4225 0.9064 -0.9064 0.4225 57.9639 8.4532)" fill="#FFFFFF" width="6.042" height="6.044"/>
	
		<rect x="34.892" y="47.118" transform="matrix(0.4227 0.9063 -0.9063 0.4227 67.3132 -5.403)" fill="#FFFFFF" width="6.012" height="6.029"/>
	<polygon fill="#FFFFFF" points="36.401,70.508 36.522,70.77 36.632,70.399 	"/>
	<polygon fill="#FFFFFF" points="19.601,69.668 19.625,69.656 19.551,69.498 	"/>
	
		<rect x="18.899" y="62.243" transform="matrix(-0.4226 -0.9063 0.9063 -0.4226 -27.9599 112.7021)" fill="#FFFFFF" width="6.043" height="6.028"/>
	
		<rect x="22.279" y="52.992" transform="matrix(0.4226 0.9063 -0.9063 0.4226 65.3678 9.4271)" fill="#FFFFFF" width="6.013" height="6.042"/>
	<path fill="#FFFFFF" d="M28.505,37.126l2.054,4.403l5.464-2.548l-1.139-2.438c-0.64-0.258-1.247-0.597-1.808-1.016
		C31.756,36.515,30.175,37.069,28.505,37.126z"/>
	
		<rect x="28.588" y="50.061" transform="matrix(0.4226 0.9063 -0.9063 0.4226 66.3477 2.0122)" fill="#FFFFFF" width="6.013" height="6.028"/>
	
		<rect x="25.205" y="59.291" transform="matrix(-0.4228 -0.9062 0.9062 -0.4228 -16.3067 114.239)" fill="#FFFFFF" width="6.044" height="6.044"/>
	
		<rect x="31.512" y="56.357" transform="matrix(-0.4228 -0.9062 0.9062 -0.4228 -4.6699 115.7678)" fill="#FFFFFF" width="6.042" height="6.028"/>
	<polygon fill="#FFFFFF" points="42.474,50.632 44.511,43.729 40.195,45.743 	"/>
	<path fill="#FFFFFF" d="M28.225,95.351c0.615,0,1.155-0.404,1.33-0.994l0.616-2.085l-1.347-2.887l-2.986,1.392l1.058,3.58
		C27.07,94.946,27.609,95.351,28.225,95.351z"/>
	<polygon fill="#FFFFFF" points="25.892,83.097 23.851,84.049 25.574,89.88 28.434,88.547 	"/>
	<polygon fill="#FFFFFF" points="11.899,43.597 13.622,49.428 17.105,47.803 14.565,42.354 	"/>
	
		<rect x="16.391" y="40.405" transform="matrix(0.9063 -0.4226 0.4226 0.9063 -16.5273 12.2709)" fill="#FFFFFF" width="6.043" height="6.012"/>
	<path fill="#FFFFFF" d="M11.634,42.699l2.539-1.184l-2.317-4.97c-0.604,0.242-1.238,0.413-1.892,0.504L11.634,42.699z"/>
	<path fill="#FFFFFF" d="M20.488,38.571l-0.715-1.536c-0.41,0.062-0.827,0.096-1.249,0.096c-1.776,0-3.458-0.562-4.853-1.604
		c-0.312,0.233-0.64,0.439-0.979,0.622l2.319,4.975L20.488,38.571z"/>
	<polygon fill="#FFFFFF" points="33.146,82.199 32.193,80.157 26.73,82.705 29.272,88.155 31.724,87.011 	"/>
	<path fill="#FFFFFF" d="M20.701,36.837l0.626,1.343l3.672-1.712c-0.573-0.247-1.118-0.562-1.624-0.94
		C22.567,36.131,21.662,36.572,20.701,36.837z"/>
	<path fill="#FFFFFF" d="M45.448,40.562l1.038-3.513c-0.871-0.121-1.706-0.383-2.483-0.77l-0.451,0.211L45.448,40.562z"/>
	<polygon fill="#FFFFFF" points="29.663,88.993 30.565,90.933 31.375,88.192 	"/>
	<polygon fill="#FFFFFF" points="34.347,78.133 36.126,72.109 35.563,70.898 30.086,73.454 32.641,78.929 	"/>
	<polygon fill="#FFFFFF" points="34,79.315 33.031,79.768 33.542,80.861 	"/>
	
		<rect x="24.777" y="74.841" transform="matrix(-0.4228 -0.9062 0.9062 -0.4228 -31.0028 135.9635)" fill="#FFFFFF" width="6.042" height="6.027"/>
	<path fill="#FFFFFF" d="M24.258,44.467l5.462-2.547l-2.249-4.825c-0.408-0.037-0.811-0.103-1.203-0.199l-4.551,2.122L24.258,44.467
		z"/>
	<polygon fill="#FFFFFF" points="22.948,76.782 21.854,77.291 23.586,83.151 25.501,82.258 	"/>
	<path fill="#FFFFFF" d="M36.08,36.92l0.78,1.672l5.464-2.548l-0.07-0.151c-1.282,0.808-2.767,1.239-4.323,1.239
		C37.297,37.131,36.679,37.059,36.08,36.92z"/>
	<polygon fill="#FFFFFF" points="13.887,50.324 15.618,56.184 20.05,54.117 17.496,48.64 	"/>
	<polygon fill="#FFFFFF" points="37.25,39.429 39.803,44.906 44.861,42.548 45.053,41.9 42.712,36.881 	"/>
	<g>
		<path fill="#FFFFFF" d="M50.31,22.782C49.277,11.493,39.784,2.65,28.225,2.65S7.175,11.493,6.141,22.782
			c-2.4,1.038-4.08,3.425-4.08,6.205c0,3.731,3.026,6.758,6.758,6.758c1.905,0,3.624-0.789,4.852-2.056
			c1.229,1.267,2.948,2.056,4.852,2.056c1.905,0,3.624-0.789,4.852-2.056c1.229,1.267,2.947,2.056,4.852,2.056
			c1.903,0,3.624-0.789,4.851-2.056c1.229,1.267,2.949,2.056,4.853,2.056c1.904,0,3.622-0.789,4.853-2.056
			c1.227,1.267,2.947,2.056,4.85,2.056c3.732,0,6.758-3.024,6.758-6.758C54.39,26.207,52.708,23.819,50.31,22.782z"/>
	</g>
</g>
<g id="blue" display="none">
	
		<rect x="28.161" y="64.108" transform="matrix(-0.4227 -0.9063 0.9063 -0.4227 -16.54 123.5458)" display="inline" fill="#42C3D2" width="5.838" height="5.866"/>
	<polygon display="inline" fill="#42C3D2" points="36.727,67.629 38.787,60.66 38.621,60.305 33.316,62.777 35.783,68.068 	"/>
	<polygon display="inline" fill="#42C3D2" points="16.242,55.846 17.914,61.506 23.135,59.072 20.668,53.781 	"/>
	<polygon display="inline" fill="#42C3D2" points="20.256,68.867 20.11,68.937 21.783,74.597 22.722,74.158 	"/>
	
		<rect x="22.037" y="66.974" transform="matrix(-0.4226 -0.9063 0.9063 -0.4226 -27.8487 122.0593)" display="inline" fill="#42C3D2" width="5.838" height="5.853"/>
	
		<rect x="31.826" y="40.057" transform="matrix(0.4225 0.9064 -0.9064 0.4225 59.0332 -6.6817)" display="inline" fill="#42C3D2" width="5.867" height="5.852"/>
	<polygon display="inline" fill="#42C3D2" points="39.055,59.111 39.274,59.01 41.492,51.502 36.575,53.794 	"/>
	
		<rect x="25.717" y="42.903" transform="matrix(0.9063 -0.4226 0.4226 0.9063 -16.6865 16.3978)" display="inline" fill="#42C3D2" width="5.852" height="5.867"/>
	
		<rect x="19.587" y="45.757" transform="matrix(0.4225 0.9064 -0.9064 0.4225 57.1376 7.7084)" display="inline" fill="#42C3D2" width="5.867" height="5.867"/>
	
		<rect x="34.697" y="46.173" transform="matrix(0.4226 0.9063 -0.9063 0.4226 66.2181 -5.7421)" display="inline" fill="#42C3D2" width="5.837" height="5.853"/>
	<polygon display="inline" fill="#42C3D2" points="36.163,68.881 36.281,69.136 36.388,68.776 	"/>
	<polygon display="inline" fill="#42C3D2" points="19.853,68.065 19.876,68.055 19.804,67.9 	"/>
	
		<rect x="19.171" y="60.857" transform="matrix(-0.4227 -0.9063 0.9063 -0.4227 -26.3595 110.7757)" display="inline" fill="#42C3D2" width="5.866" height="5.853"/>
	
		<rect x="22.453" y="51.875" transform="matrix(0.4226 0.9063 -0.9063 0.4226 64.3224 8.6505)" display="inline" fill="#42C3D2" width="5.838" height="5.867"/>
	<path display="inline" fill="#42C3D2" d="M28.498,36.471l1.994,4.276l5.305-2.474l-1.105-2.367c-0.621-0.25-1.211-0.58-1.755-0.986
		C31.654,35.878,30.119,36.417,28.498,36.471z"/>
	
		<rect x="28.578" y="49.029" transform="matrix(0.4226 0.9063 -0.9063 0.4226 65.277 1.4551)" display="inline" fill="#42C3D2" width="5.838" height="5.853"/>
	
		<rect x="25.294" y="57.991" transform="matrix(-0.4227 -0.9062 0.9062 -0.4227 -15.0526 112.2616)" display="inline" fill="#42C3D2" width="5.867" height="5.868"/>
	
		<rect x="31.416" y="55.143" transform="matrix(-0.4228 -0.9062 0.9062 -0.4228 -3.7499 113.7493)" display="inline" fill="#42C3D2" width="5.867" height="5.852"/>
	<polygon display="inline" fill="#42C3D2" points="42.059,49.584 44.038,42.883 39.846,44.838 	"/>
	<path display="inline" fill="#42C3D2" d="M28.225,93c0.598,0,1.122-0.393,1.292-0.965l0.598-2.024l-1.308-2.803l-2.899,1.352
		l1.027,3.476C27.104,92.607,27.627,93,28.225,93z"/>
	<polygon display="inline" fill="#42C3D2" points="25.96,81.104 23.979,82.027 25.651,87.689 28.428,86.395 	"/>
	<polygon display="inline" fill="#42C3D2" points="12.375,42.754 14.047,48.415 17.429,46.837 14.963,41.547 	"/>
	
		<rect x="16.735" y="39.655" transform="matrix(0.9063 -0.4226 0.4226 0.9063 -16.1494 12.301)" display="inline" fill="#42C3D2" width="5.867" height="5.837"/>
	<path display="inline" fill="#42C3D2" d="M12.118,41.883l2.465-1.149l-2.25-4.825c-0.586,0.235-1.203,0.401-1.837,0.489
		L12.118,41.883z"/>
	<path display="inline" fill="#42C3D2" d="M20.714,37.875l-0.694-1.492c-0.398,0.061-0.803,0.093-1.213,0.093
		c-1.724,0-3.357-0.545-4.711-1.556c-0.302,0.226-0.621,0.426-0.951,0.604l2.251,4.83L20.714,37.875z"/>
	<polygon display="inline" fill="#42C3D2" points="33.003,80.232 32.078,78.25 26.774,80.724 29.242,86.015 31.623,84.903 	"/>
	<path display="inline" fill="#42C3D2" d="M20.92,36.191l0.608,1.304l3.565-1.662c-0.556-0.241-1.085-0.545-1.577-0.913
		C22.732,35.506,21.853,35.934,20.92,36.191z"/>
	<path display="inline" fill="#42C3D2" d="M44.947,39.807l1.008-3.41c-0.846-0.118-1.656-0.372-2.411-0.748l-0.438,0.205
		L44.947,39.807z"/>
	<polygon display="inline" fill="#42C3D2" points="29.621,86.828 30.498,88.711 31.284,86.051 	"/>
	<polygon display="inline" fill="#42C3D2" points="34.169,76.284 35.897,70.437 35.349,69.261 30.033,71.741 32.513,77.057 	"/>
	<polygon display="inline" fill="#42C3D2" points="33.832,77.433 32.891,77.871 33.387,78.934 	"/>
	
		<rect x="24.877" y="73.088" transform="matrix(-0.4228 -0.9062 0.9062 -0.4228 -29.3166 133.357)" display="inline" fill="#42C3D2" width="5.867" height="5.853"/>
	<path display="inline" fill="#42C3D2" d="M24.374,43.599l5.303-2.473l-2.184-4.685c-0.396-0.036-0.787-0.1-1.167-0.193
		l-4.419,2.061L24.374,43.599z"/>
	<polygon display="inline" fill="#42C3D2" points="23.102,74.973 22.04,75.467 23.722,81.156 25.582,80.289 	"/>
	<path display="inline" fill="#42C3D2" d="M35.851,36.272l0.758,1.623l5.305-2.474l-0.068-0.147
		c-1.245,0.784-2.687,1.203-4.197,1.203C37.034,36.476,36.433,36.406,35.851,36.272z"/>
	<polygon display="inline" fill="#42C3D2" points="14.305,49.285 15.985,54.975 20.289,52.968 17.809,47.65 	"/>
	<polygon display="inline" fill="#42C3D2" points="36.987,38.708 39.466,44.025 44.376,41.736 44.563,41.107 42.291,36.234 	"/>
	<g display="inline">
		<path fill="#42C3D2" d="M49.667,22.546C48.664,11.585,39.448,3,28.225,3C17.003,3,7.789,11.585,6.785,22.546
			c-2.33,1.007-3.961,3.325-3.961,6.024c0,3.623,2.938,6.561,6.561,6.561c1.85,0,3.519-0.766,4.709-1.996
			c1.193,1.23,2.862,1.996,4.711,1.996c1.849,0,3.518-0.766,4.71-1.996c1.193,1.23,2.862,1.996,4.71,1.996
			c1.849,0,3.519-0.766,4.71-1.996c1.193,1.23,2.863,1.996,4.711,1.996c1.849,0,3.517-0.766,4.711-1.996
			c1.191,1.23,2.861,1.996,4.709,1.996c3.623,0,6.561-2.937,6.561-6.561C53.628,25.871,51.996,23.552,49.667,22.546z"/>
	</g>
</g>
<g id="green">
	
		<rect x="28.161" y="64.108" transform="matrix(-0.4227 -0.9063 0.9063 -0.4227 -16.54 123.5458)" fill="#B6469A" width="5.838" height="5.866"/>
	<polygon fill="#B6469A" points="36.727,67.629 38.787,60.66 38.621,60.305 33.316,62.777 35.783,68.068 	"/>
	<polygon fill="#B6469A" points="16.242,55.846 17.914,61.506 23.135,59.072 20.668,53.781 	"/>
	<polygon fill="#B6469A" points="20.256,68.867 20.11,68.937 21.783,74.597 22.722,74.158 	"/>
	
		<rect x="22.037" y="66.974" transform="matrix(-0.4226 -0.9063 0.9063 -0.4226 -27.8487 122.0593)" fill="#B6469A" width="5.838" height="5.853"/>
	
		<rect x="31.826" y="40.057" transform="matrix(0.4225 0.9064 -0.9064 0.4225 59.0332 -6.6817)" fill="#B6469A" width="5.867" height="5.852"/>
	<polygon fill="#B6469A" points="39.055,59.111 39.274,59.01 41.492,51.502 36.575,53.794 	"/>
	
		<rect x="25.717" y="42.903" transform="matrix(0.9063 -0.4226 0.4226 0.9063 -16.6865 16.3978)" fill="#B6469A" width="5.852" height="5.867"/>
	
		<rect x="19.587" y="45.757" transform="matrix(0.4225 0.9064 -0.9064 0.4225 57.1376 7.7084)" fill="#B6469A" width="5.867" height="5.867"/>
	
		<rect x="34.697" y="46.173" transform="matrix(0.4226 0.9063 -0.9063 0.4226 66.2181 -5.7421)" fill="#B6469A" width="5.837" height="5.853"/>
	<polygon fill="#B6469A" points="36.163,68.881 36.281,69.136 36.388,68.776 	"/>
	<polygon fill="#B6469A" points="19.853,68.065 19.876,68.055 19.804,67.9 	"/>
	
		<rect x="19.171" y="60.857" transform="matrix(-0.4227 -0.9063 0.9063 -0.4227 -26.3595 110.7757)" fill="#B6469A" width="5.866" height="5.853"/>
	
		<rect x="22.453" y="51.875" transform="matrix(0.4226 0.9063 -0.9063 0.4226 64.3224 8.6505)" fill="#B6469A" width="5.838" height="5.867"/>
	<path fill="#B6469A" d="M28.498,36.471l1.994,4.276l5.305-2.474l-1.105-2.367c-0.621-0.25-1.211-0.58-1.755-0.986
		C31.654,35.878,30.119,36.417,28.498,36.471z"/>
	
		<rect x="28.578" y="49.029" transform="matrix(0.4226 0.9063 -0.9063 0.4226 65.277 1.4551)" fill="#B6469A" width="5.838" height="5.853"/>
	
		<rect x="25.294" y="57.991" transform="matrix(-0.4227 -0.9062 0.9062 -0.4227 -15.0526 112.2616)" fill="#B6469A" width="5.867" height="5.868"/>
	
		<rect x="31.416" y="55.143" transform="matrix(-0.4228 -0.9062 0.9062 -0.4228 -3.7499 113.7493)" fill="#B6469A" width="5.867" height="5.852"/>
	<polygon fill="#B6469A" points="42.059,49.584 44.038,42.883 39.846,44.838 	"/>
	<path fill="#B6469A" d="M28.225,93c0.598,0,1.122-0.393,1.292-0.965l0.598-2.024l-1.308-2.803l-2.899,1.352l1.027,3.476
		C27.104,92.607,27.627,93,28.225,93z"/>
	<polygon fill="#B6469A" points="25.96,81.104 23.979,82.027 25.651,87.689 28.428,86.395 	"/>
	<polygon fill="#B6469A" points="12.375,42.754 14.047,48.415 17.429,46.837 14.963,41.547 	"/>
	
		<rect x="16.735" y="39.655" transform="matrix(0.9063 -0.4226 0.4226 0.9063 -16.1494 12.301)" fill="#B6469A" width="5.867" height="5.837"/>
	<path fill="#B6469A" d="M12.118,41.883l2.465-1.149l-2.25-4.825c-0.586,0.235-1.203,0.401-1.837,0.489L12.118,41.883z"/>
	<path fill="#B6469A" d="M20.714,37.875l-0.694-1.492c-0.398,0.061-0.803,0.093-1.213,0.093c-1.724,0-3.357-0.545-4.711-1.556
		c-0.302,0.226-0.621,0.426-0.951,0.604l2.251,4.83L20.714,37.875z"/>
	<polygon fill="#B6469A" points="33.003,80.232 32.078,78.25 26.774,80.724 29.242,86.015 31.623,84.903 	"/>
	<path fill="#B6469A" d="M20.92,36.191l0.608,1.304l3.565-1.662c-0.556-0.241-1.085-0.545-1.577-0.913
		C22.732,35.506,21.853,35.934,20.92,36.191z"/>
	<path fill="#B6469A" d="M44.947,39.807l1.008-3.41c-0.846-0.118-1.656-0.372-2.411-0.748l-0.438,0.205L44.947,39.807z"/>
	<polygon fill="#B6469A" points="29.621,86.828 30.498,88.711 31.284,86.051 	"/>
	<polygon fill="#B6469A" points="34.169,76.284 35.897,70.437 35.349,69.261 30.033,71.741 32.513,77.057 	"/>
	<polygon fill="#B6469A" points="33.832,77.433 32.891,77.871 33.387,78.934 	"/>
	
		<rect x="24.877" y="73.088" transform="matrix(-0.4228 -0.9062 0.9062 -0.4228 -29.3166 133.357)" fill="#B6469A" width="5.867" height="5.853"/>
	<path fill="#B6469A" d="M24.374,43.599l5.303-2.473l-2.184-4.685c-0.396-0.036-0.787-0.1-1.167-0.193l-4.419,2.061L24.374,43.599z"
		/>
	<polygon fill="#B6469A" points="23.102,74.973 22.04,75.467 23.722,81.156 25.582,80.289 	"/>
	<path fill="#B6469A" d="M35.851,36.272l0.758,1.623l5.305-2.474l-0.068-0.147c-1.245,0.784-2.687,1.203-4.197,1.203
		C37.034,36.476,36.433,36.406,35.851,36.272z"/>
	<polygon fill="#B6469A" points="14.305,49.285 15.985,54.975 20.289,52.968 17.809,47.65 	"/>
	<polygon fill="#B6469A" points="36.987,38.708 39.466,44.025 44.376,41.736 44.563,41.107 42.291,36.234 	"/>
	<g>
		<path fill="#B6469A" d="M49.667,22.546C48.664,11.585,39.448,3,28.225,3C17.003,3,7.789,11.585,6.785,22.546
			c-2.33,1.007-3.961,3.325-3.961,6.024c0,3.623,2.938,6.561,6.561,6.561c1.85,0,3.519-0.766,4.709-1.996
			c1.193,1.23,2.862,1.996,4.711,1.996c1.849,0,3.518-0.766,4.71-1.996c1.193,1.23,2.862,1.996,4.71,1.996
			c1.849,0,3.519-0.766,4.71-1.996c1.193,1.23,2.863,1.996,4.711,1.996c1.849,0,3.517-0.766,4.711-1.996
			c1.191,1.23,2.861,1.996,4.709,1.996c3.623,0,6.561-2.937,6.561-6.561C53.628,25.871,51.996,23.552,49.667,22.546z"/>
	</g>
</g>
</svg>
